<svg xmlns="http://www.w3.org/2000/svg" width="640" height="520" viewBox="0 0 640 520" role="img" aria-label="Diverse people illustration">
  <defs>
    <linearGradient id="bg" x1="0" y1="0" x2="1" y2="1">
      <stop offset="0" stop-color="#1f2a44"/>
      <stop offset="1" stop-color="#0b0f1a"/>
    </linearGradient>
    <radialGradient id="glow" cx="30%" cy="25%" r="70%">
      <stop offset="0" stop-color="#3b82f6" stop-opacity="0.55"/>
      <stop offset="1" stop-color="#3b82f6" stop-opacity="0"/>
    </radialGradient>
    <radialGradient id="glow2" cx="70%" cy="70%" r="70%">
      <stop offset="0" stop-color="#22c55e" stop-opacity="0.35"/>
      <stop offset="1" stop-color="#22c55e" stop-opacity="0"/>
    </radialGradient>
  </defs>
  <rect width="640" height="520" rx="28" fill="url(#bg)"/>
  <rect width="640" height="520" rx="28" fill="url(#glow)"/>
  <rect width="640" height="520" rx="28" fill="url(#glow2)"/>
  <g opacity="0.92">
    <g transform="translate(120 150)">
      <circle cx="80" cy="70" r="44" fill="#f2c9a0"/>
      <rect x="35" y="118" width="90" height="120" rx="26" fill="#1f2937"/>
      <rect x="44" y="134" width="72" height="14" rx="7" fill="#3b82f6" opacity="0.75"/>
    </g>
    <g transform="translate(260 110)">
      <circle cx="80" cy="70" r="44" fill="#d4a373"/>
      <rect x="35" y="118" width="90" height="140" rx="26" fill="#111827"/>
      <rect x="44" y="134" width="72" height="14" rx="7" fill="#22c55e" opacity="0.75"/>
    </g>
    <g transform="translate(400 160)">
      <circle cx="80" cy="70" r="44" fill="#c08457"/>
      <rect x="35" y="118" width="90" height="120" rx="26" fill="#0f172a"/>
      <rect x="44" y="134" width="72" height="14" rx="7" fill="#f59e0b" opacity="0.7"/>
    </g>
  </g>
  <g opacity="0.9">
    <rect x="62" y="360" width="516" height="96" rx="22" fill="rgba(255,255,255,0.06)"/>
    <g transform="translate(92 386)" fill="rgba(255,255,255,0.8)">
      <rect x="0" y="0" width="160" height="12" rx="6"/>
      <rect x="0" y="22" width="260" height="10" rx="5" opacity="0.7"/>
      <rect x="0" y="40" width="220" height="10" rx="5" opacity="0.6"/>
    </g>
    <g transform="translate(404 390)">
      <rect x="0" y="0" width="142" height="40" rx="14" fill="#3b82f6"/>
      <rect x="0" y="52" width="142" height="40" rx="14" fill="rgba(255,255,255,0.08)" stroke="rgba(255,255,255,0.16)"/>
    </g>
  </g>
</svg>

